<svg width="176" height="48" viewBox="0 0 176 48" fill="none" xmlns="http://www.w3.org/2000/svg">
<mask id="mask0_810_393" style="mask-type:alpha" maskUnits="userSpaceOnUse" x="0" y="0" width="48" height="48">
<rect width="48" height="48" fill="white"/>
</mask>
<g mask="url(#mask0_810_393)">
<path d="M40.9658 16.2901C40.8838 14.4304 40.583 13.1519 40.1522 12.044C39.7078 10.8681 39.0241 9.81525 38.1283 8.94003C37.2531 8.05118 36.1933 7.36051 35.0309 6.92303C33.9167 6.49223 32.6448 6.1915 30.7852 6.1095C28.9116 6.02057 28.3168 6 23.5649 6C18.813 6 18.2182 6.02057 16.3516 6.10256C14.4919 6.18455 13.2133 6.48555 12.1058 6.91609C10.9295 7.36051 9.87671 8.04424 9.00149 8.94003C8.11264 9.81525 7.42224 10.875 6.98449 12.0374C6.55369 13.1519 6.25296 14.4235 6.17097 16.2832C6.08203 18.1567 6.06146 18.7515 6.06146 23.5034C6.06146 28.2553 6.08203 28.8501 6.16402 30.7167C6.24602 32.5764 6.54702 33.8549 6.97782 34.9628C7.42224 36.1388 8.11264 37.1916 9.00149 38.0668C9.87671 38.9557 10.9365 39.6463 12.0988 40.0838C13.2133 40.5146 14.4849 40.8153 16.3449 40.8973C18.2113 40.9796 18.8063 40.9999 23.5582 40.9999C28.3101 40.9999 28.9049 40.9796 30.7715 40.8973C32.6312 40.8153 33.9097 40.5146 35.0173 40.0838C37.3695 39.1744 39.2292 37.3147 40.1386 34.9628C40.5691 33.8483 40.8701 32.5764 40.9521 30.7167C41.0341 28.8501 41.0547 28.2553 41.0547 23.5034C41.0547 18.7515 41.0477 18.1567 40.9658 16.2901ZM37.8139 30.58C37.7386 32.2893 37.4515 33.2123 37.2122 33.8277C36.6241 35.3525 35.4139 36.5626 33.8892 37.1507C33.2738 37.39 32.3441 37.6771 30.6415 37.7522C28.7954 37.8344 28.2418 37.8547 23.5718 37.8547C18.9019 37.8547 18.3413 37.8344 16.5019 37.7522C14.7926 37.6771 13.8696 37.39 13.2542 37.1507C12.4954 36.8703 11.8048 36.4259 11.2442 35.8447C10.663 35.2771 10.2186 34.5934 9.93814 33.8346C9.69884 33.2193 9.41172 32.2893 9.33667 30.5869C9.25441 28.7409 9.23412 28.187 9.23412 23.517C9.23412 18.8471 9.25441 18.2865 9.33667 16.4474C9.41172 14.7381 9.69884 13.8151 9.93814 13.1997C10.2186 12.4407 10.663 11.7503 11.2511 11.1894C11.8184 10.6082 12.5021 10.1638 13.2612 9.88362C13.8765 9.64432 14.8065 9.35721 16.5089 9.28189C18.355 9.1999 18.9089 9.17933 23.5785 9.17933C28.2554 9.17933 28.809 9.1999 30.6484 9.28189C32.3577 9.35721 33.2808 9.64432 33.8961 9.88362C34.6549 10.1638 35.3456 10.6082 35.9062 11.1894C36.4873 11.7569 36.9318 12.4407 37.2122 13.1997C37.4515 13.8151 37.7386 14.7448 37.8139 16.4474C37.8959 18.2935 37.9165 18.8471 37.9165 23.517C37.9165 28.187 37.8959 28.7339 37.8139 30.58Z" fill="#F58634"/>
<path d="M23.5649 14.5125C18.6012 14.5125 14.5739 18.5395 14.5739 23.5035C14.5739 28.4674 18.6012 32.4945 23.5649 32.4945C28.5289 32.4945 32.5559 28.4674 32.5559 23.5035C32.5559 18.5395 28.5289 14.5125 23.5649 14.5125ZM23.5649 29.3357C20.3447 29.3357 17.7327 26.7239 17.7327 23.5035C17.7327 20.283 20.3447 17.6712 23.5649 17.6712C26.7854 17.6712 29.3971 20.283 29.3971 23.5035C29.3971 26.7239 26.7854 29.3357 23.5649 29.3357Z" fill="#F58634"/>
<path d="M35.0106 14.1569C35.0106 15.316 34.0708 16.2558 32.9114 16.2558C31.7522 16.2558 30.8124 15.316 30.8124 14.1569C30.8124 12.9975 31.7522 12.0579 32.9114 12.0579C34.0708 12.0579 35.0106 12.9975 35.0106 14.1569Z" fill="#F58634"/>
</g>
<mask id="mask1_810_393" style="mask-type:alpha" maskUnits="userSpaceOnUse" x="64" y="0" width="48" height="48">
<rect width="48" height="48" transform="translate(64)" fill="white"/>
</mask>
<g mask="url(#mask1_810_393)">
<path d="M93.3063 11.8115H96.5015V6.24646C95.9502 6.17063 94.0544 6 91.8465 6C87.2396 6 84.0838 8.89771 84.0838 14.2235V19.125H79V25.3463H84.0838V41H90.3167V25.3477H95.1948L95.9692 19.1265H90.3152V14.8404C90.3167 13.0423 90.8008 11.8115 93.3063 11.8115Z" fill="#F58634"/>
</g>
<mask id="mask2_810_393" style="mask-type:alpha" maskUnits="userSpaceOnUse" x="128" y="0" width="48" height="48">
<rect width="48" height="48" transform="translate(128)" fill="white"/>
</mask>
<g mask="url(#mask2_810_393)">
<path d="M169 13.4088C167.698 13.987 166.312 14.3702 164.866 14.5562C166.353 13.6569 167.488 12.2438 168.022 10.5405C166.635 11.3777 165.104 11.9691 163.472 12.2991C162.155 10.8793 160.278 10 158.231 10C154.258 10 151.06 13.2649 151.06 17.2674C151.06 17.8432 151.108 18.397 151.227 18.9242C145.261 18.6296 139.983 15.7346 136.437 11.3246C135.818 12.4121 135.455 13.6569 135.455 14.997C135.455 17.5132 136.734 19.7437 138.642 21.035C137.489 21.0129 136.358 20.674 135.4 20.1402C135.4 20.1623 135.4 20.1911 135.4 20.2199C135.4 23.7506 137.887 26.6832 141.149 27.3588C140.565 27.5205 139.928 27.598 139.267 27.598C138.808 27.598 138.344 27.5714 137.909 27.474C138.839 30.3512 141.477 32.4665 144.614 32.5352C142.173 34.4688 139.073 35.6339 135.717 35.6339C135.129 35.6339 134.564 35.6073 134 35.5343C137.178 37.6097 140.945 38.7947 145.007 38.7947C158.211 38.7947 165.43 27.7198 165.43 18.1201C165.43 17.7989 165.419 17.4888 165.404 17.181C166.828 16.1576 168.024 14.8796 169 13.4088Z" fill="#F58634"/>
</g>
</svg>
